<svg viewBox="0 0 1000 1000" xmlns="http://www.w3.org/2000/svg"><defs><radialGradient id="b" r="100%" cx="50%" cy="50%"><stop offset="0%" stop-color="#00DBDE"/><stop offset="100%" stop-color="#FC00FF"/></radialGradient><clipPath id="a"><path fill="currentColor" d="M932 633.5Q867 767 742 813t-242.5 47.5Q382 862 307 778.5t-73-181q2-97.5-1-195.5t91.5-124.5Q419 251 512.5 213t159 38.5Q737 328 867 414t65 219.5Z"/></clipPath></defs><g clip-path="url(#a)"><path fill="url(#b)" d="M932 633.5Q867 767 742 813t-242.5 47.5Q382 862 307 778.5t-73-181q2-97.5-1-195.5t91.5-124.5Q419 251 512.5 213t159 38.5Q737 328 867 414t65 219.5Z"/></g></svg>